<?xml version="1.0" standalone="no"?>
<!DOCTYPE svg PUBLIC "-//W3C//DTD SVG 20010904//EN"
 "http://www.w3.org/TR/2001/REC-SVG-20010904/DTD/svg10.dtd">
<svg version="1.0" xmlns="http://www.w3.org/2000/svg"
 width="1280.000000pt" height="474.000000pt" viewBox="0 0 1280.000000 474.000000"
 preserveAspectRatio="xMidYMid meet">

<g transform="translate(0.000000,474.000000) scale(0.100000,-0.100000)"
fill="#000000" stroke="none">
<path d="M11778 4243 c7 -3 16 -2 19 1 4 3 -2 6 -13 5 -11 0 -14 -3 -6 -6z"/>
<path d="M10691 4214 c0 -11 3 -14 6 -6 3 7 2 16 -1 19 -3 4 -6 -2 -5 -13z"/>
<path d="M2577 4189 c7 -7 15 -10 18 -7 3 3 -2 9 -12 12 -14 6 -15 5 -6 -5z"/>
<path d="M4998 4188 c5 -5 16 -8 23 -6 8 3 3 7 -10 11 -17 4 -21 3 -13 -5z"/>
<path d="M9395 4190 c3 -5 11 -10 16 -10 6 0 7 5 4 10 -3 6 -11 10 -16 10 -6
0 -7 -4 -4 -10z"/>
<path d="M4050 4180 c0 -5 5 -10 11 -10 5 0 7 5 4 10 -3 6 -8 10 -11 10 -2 0
-4 -4 -4 -10z"/>
<path d="M6480 4170 c0 -6 7 -10 15 -10 8 0 15 2 15 4 0 2 -7 6 -15 10 -8 3
-15 1 -15 -4z"/>
<path d="M4720 4090 c-9 -6 -10 -10 -3 -10 6 0 15 5 18 10 8 12 4 12 -15 0z"/>
<path d="M7095 4090 c-3 -5 -1 -10 4 -10 6 0 11 5 11 10 0 6 -2 10 -4 10 -3 0
-8 -4 -11 -10z"/>
<path d="M1950 4060 c0 -5 5 -10 11 -10 5 0 7 5 4 10 -3 6 -8 10 -11 10 -2 0
-4 -4 -4 -10z"/>
<path d="M4380 4060 c0 -5 5 -10 11 -10 5 0 7 5 4 10 -3 6 -8 10 -11 10 -2 0
-4 -4 -4 -10z"/>
<path d="M6810 4050 c0 -5 5 -10 11 -10 5 0 7 5 4 10 -3 6 -8 10 -11 10 -2 0
-4 -4 -4 -10z"/>
<path d="M3640 3963 c-47 -1 -186 -8 -310 -14 -124 -6 -358 -16 -520 -23
l-295 -11 -8 -98 c-5 -54 -6 -105 -3 -114 6 -14 28 -15 206 -9 183 6 200 5
200 -10 0 -9 -21 -94 -46 -188 -76 -287 -204 -957 -207 -1086 l-2 -65 95 -8
c140 -11 163 4 175 115 3 29 8 72 11 95 l5 41 82 6 c45 3 121 7 169 10 l87 4
5 -42 c18 -152 27 -211 34 -217 4 -3 66 0 137 7 72 7 137 13 146 13 14 1 16
16 12 119 -4 150 -17 228 -60 377 -43 148 -50 193 -63 375 -10 144 -28 265
-56 369 -7 30 -13 56 -11 57 1 1 86 4 190 6 l187 3 0 -43 c0 -23 -6 -107 -14
-185 -8 -78 -20 -207 -25 -287 -6 -80 -21 -279 -33 -443 -15 -211 -18 -301
-11 -308 12 -12 211 -3 230 10 6 3 15 110 21 236 21 418 36 655 42 655 4 0 11
-26 18 -57 25 -131 144 -672 157 -720 18 -62 32 -68 112 -54 31 6 58 11 60 11
15 0 63 108 102 233 27 84 76 238 110 344 34 106 65 194 70 197 5 3 12 -34 15
-82 4 -48 16 -188 26 -312 10 -124 22 -278 26 -342 l7 -118 28 0 c49 0 226 29
253 42 34 15 34 52 0 183 -41 154 -42 164 -59 425 -9 135 -25 322 -36 415 -11
94 -23 208 -26 253 -4 56 -10 85 -19 89 -15 6 -264 -13 -271 -21 -3 -3 -20
-67 -39 -142 -19 -76 -48 -181 -65 -233 -27 -85 -109 -384 -109 -399 0 -3 -4
-2 -9 3 -18 20 -156 547 -192 735 -12 63 -26 121 -32 127 -6 9 -60 13 -180 15
l-172 3 -5 30 c-6 34 -3 33 -140 28z m-505 -458 c28 -232 46 -347 81 -525 19
-96 34 -179 34 -186 0 -13 -330 -27 -344 -14 -5 5 4 75 22 167 18 87 38 201
47 253 14 95 94 391 116 431 6 12 15 17 19 13 5 -5 16 -68 25 -139z"/>
<path d="M5935 3959 c-132 -4 -303 -13 -380 -18 -77 -6 -247 -14 -377 -17
l-237 -6 -5 -54 c-3 -30 -9 -79 -12 -109 -5 -52 -4 -55 21 -61 15 -4 107 -3
205 0 98 4 180 4 183 -1 3 -4 -15 -85 -39 -178 -53 -205 -70 -280 -128 -585
-66 -342 -101 -569 -90 -579 5 -5 55 -12 110 -15 97 -6 103 -6 129 17 25 21
28 33 39 127 l11 105 65 6 c36 4 112 8 170 10 l105 4 13 -115 c6 -63 14 -121
17 -129 4 -11 28 -12 123 -7 64 4 132 10 149 13 l33 5 -6 147 c-6 159 -20 243
-63 379 -31 95 -45 186 -61 392 -9 115 -21 189 -56 352 l-6 26 183 4 c101 2
186 3 189 2 7 -3 -3 -159 -28 -464 -32 -374 -56 -775 -49 -794 6 -16 17 -17
105 -11 53 4 104 9 113 11 19 5 21 25 44 469 24 446 30 492 50 365 16 -101
155 -723 168 -748 12 -26 16 -27 75 -25 35 2 71 7 82 13 36 19 60 86 226 615
41 132 54 165 64 165 4 0 10 -51 13 -112 4 -62 16 -223 27 -358 12 -135 23
-278 26 -317 l6 -73 31 0 c56 0 218 30 249 46 28 14 29 18 23 57 -3 23 -19 94
-35 157 -29 114 -40 214 -60 510 -6 85 -19 234 -30 330 -11 96 -20 199 -20
230 0 86 2 85 -148 73 -71 -6 -134 -13 -140 -17 -6 -3 -20 -50 -32 -104 -12
-53 -42 -161 -66 -239 -24 -78 -60 -202 -80 -275 -45 -168 -49 -174 -64 -118
-6 25 -20 74 -30 110 -48 168 -111 419 -140 560 -17 85 -37 158 -43 162 -7 4
-87 8 -179 8 l-168 0 0 29 c0 17 -6 31 -16 35 -9 3 -16 5 -17 4 -1 0 -110 -5
-242 -9z m-396 -333 c5 -13 19 -101 31 -196 21 -176 28 -218 81 -489 16 -84
28 -155 27 -156 -8 -6 -348 -14 -351 -7 -3 4 6 61 20 127 13 66 35 183 48 260
13 77 45 214 70 304 56 200 57 203 74 157z"/>
<path d="M8855 3959 c-126 -4 -297 -12 -380 -18 -82 -6 -249 -13 -371 -17
-199 -5 -223 -4 -238 11 -15 15 -43 17 -244 16 -125 -1 -230 -5 -234 -9 -12
-12 19 -179 42 -226 23 -48 31 -52 112 -46 24 1 28 -3 34 -37 4 -21 3 -243 -2
-493 -9 -487 -7 -810 6 -824 12 -13 264 -3 282 11 15 13 15 156 1 1019 l-6
341 193 7 c106 4 197 3 201 -1 7 -9 2 -34 -62 -266 -22 -82 -53 -219 -69 -305
-93 -498 -119 -645 -125 -705 -8 -77 -16 -72 120 -81 127 -9 145 10 162 169
l8 80 60 7 c33 3 110 7 170 9 l110 3 6 -60 c4 -32 10 -90 14 -128 l7 -68 111
6 c62 4 131 9 154 13 l43 5 -6 137 c-6 154 -23 255 -64 386 -34 108 -47 184
-55 325 -9 147 -23 249 -50 365 -13 54 -21 103 -18 109 9 14 285 -1 295 -17 4
-6 4 -292 1 -634 l-6 -623 39 0 c43 0 212 17 260 26 l31 6 -5 284 c-3 173 -1
289 5 295 5 5 51 10 101 10 73 0 101 -4 129 -18 77 -40 73 -11 81 -566 5 -273
12 -500 16 -504 9 -10 282 -11 291 -2 6 7 -8 504 -24 845 -7 137 -12 179 -29
216 -22 51 -80 100 -140 118 -20 6 -50 16 -66 23 -26 9 -27 12 -10 18 10 4 30
8 44 8 43 2 99 21 125 44 27 23 56 117 70 223 8 63 -12 238 -31 276 -14 28
-155 128 -235 166 -43 21 -66 23 -315 30 -168 4 -269 11 -269 17 0 17 -16 35
-28 33 -7 0 -115 -5 -242 -9z m679 -261 c21 -5 49 -21 62 -35 23 -25 24 -30
24 -204 0 -97 -3 -185 -6 -194 -11 -28 -76 -52 -157 -58 -76 -5 -78 -5 -88 19
-10 29 -12 302 -3 418 l7 77 61 -7 c34 -3 78 -10 100 -16z m-1065 -115 c6 -38
18 -131 27 -208 9 -77 36 -241 60 -364 24 -124 42 -226 41 -227 -4 -5 -346 -8
-351 -4 -2 3 7 59 20 125 14 66 34 176 45 245 17 107 91 402 120 476 15 41 27
27 38 -43z"/>
<path d="M11430 3959 c-135 -4 -306 -12 -380 -18 -175 -14 -563 -25 -590 -16
-11 3 -20 12 -20 18 0 9 -57 11 -227 9 -126 -1 -234 -5 -240 -7 -8 -3 -11 -16
-8 -32 27 -171 36 -203 71 -238 13 -13 27 -15 64 -10 l47 6 7 -113 c3 -62 2
-315 -3 -563 -8 -409 -4 -666 12 -682 8 -8 209 -5 253 3 18 3 35 11 37 17 2 7
0 313 -6 680 -5 367 -8 669 -6 671 2 2 91 7 197 10 l192 7 0 -29 c0 -17 -8
-58 -19 -93 -45 -151 -82 -303 -105 -429 -14 -74 -36 -189 -50 -255 -38 -187
-88 -494 -84 -523 3 -27 4 -27 103 -34 68 -4 108 -3 125 5 30 15 46 59 57 162
l8 80 60 7 c33 3 110 7 170 8 l110 3 12 -119 c7 -66 15 -125 18 -131 2 -8 15
-11 32 -8 15 3 81 9 147 15 65 5 120 11 122 13 2 2 0 78 -6 168 -10 160 -15
188 -74 399 -19 68 -30 148 -41 280 -16 200 -25 262 -56 384 -15 57 -17 81 -9
86 6 4 72 10 147 13 96 4 142 11 159 22 28 18 41 66 46 165 2 61 0 75 -12 76
-8 1 -125 -2 -260 -7z m-390 -314 c0 -3 11 -94 25 -203 25 -193 71 -463 101
-591 8 -35 13 -65 12 -66 -9 -7 -348 -13 -353 -6 -3 5 4 53 16 108 11 54 33
170 49 259 27 152 101 448 121 486 9 16 29 25 29 13z"/>
<path d="M1108 3886 c-80 -6 -148 -13 -151 -16 -2 -3 -7 -50 -11 -104 l-7 -99
216 5 215 5 0 -26 c0 -14 -11 -152 -25 -306 -27 -311 -65 -836 -65 -904 l0
-43 113 7 c61 4 117 11 123 16 7 6 14 78 18 186 4 98 14 282 21 408 8 127 15
246 15 264 0 50 16 27 29 -39 25 -132 150 -698 161 -725 15 -39 26 -45 80 -39
106 13 122 35 200 284 88 280 162 505 169 512 4 4 15 -92 24 -215 10 -122 22
-269 27 -327 4 -58 11 -153 15 -212 l7 -108 31 0 c56 0 213 27 243 42 26 12
29 18 28 59 -1 24 -16 101 -33 169 -27 106 -34 161 -46 355 -15 233 -38 475
-55 582 -6 32 -10 85 -10 118 0 89 0 89 -121 81 -168 -11 -163 -10 -182 -69
-9 -29 -23 -83 -32 -122 -9 -38 -33 -126 -55 -195 -22 -69 -55 -186 -75 -260
-20 -74 -40 -139 -44 -143 -5 -5 -18 29 -31 75 -12 46 -41 155 -65 243 -45
168 -86 342 -106 460 -7 39 -17 76 -22 83 -12 15 -381 14 -599 -2z"/>
<path d="M11973 3840 c0 -25 2 -35 4 -22 2 12 2 32 0 45 -2 12 -4 2 -4 -23z"/>
<path d="M673 3730 c0 -25 2 -35 4 -22 2 12 2 32 0 45 -2 12 -4 2 -4 -23z"/>
<path d="M11916 3623 c-6 -14 -5 -15 5 -6 7 7 10 15 7 18 -3 3 -9 -2 -12 -12z"/>
<path d="M11682 3215 c-1 -16 3 -48 7 -70 11 -53 12 -5 2 55 -6 34 -9 37 -9
15z"/>
<path d="M1053 3155 c0 -27 2 -38 4 -22 2 15 2 37 0 50 -2 12 -4 0 -4 -28z"/>
<path d="M11761 2844 c0 -11 3 -14 6 -6 3 7 2 16 -1 19 -3 4 -6 -2 -5 -13z"/>
<path d="M11792 2690 c0 -19 2 -27 5 -17 2 9 2 25 0 35 -3 9 -5 1 -5 -18z"/>
<path d="M4475 2270 c3 -5 8 -10 11 -10 2 0 4 5 4 10 0 6 -5 10 -11 10 -5 0
-7 -4 -4 -10z"/>
<path d="M6905 2270 c3 -5 8 -10 11 -10 2 0 4 5 4 10 0 6 -5 10 -11 10 -5 0
-7 -4 -4 -10z"/>
<path d="M1965 2240 c-16 -7 -17 -9 -3 -9 9 -1 20 4 23 9 7 11 7 11 -20 0z"/>
<path d="M4395 2240 c-16 -7 -17 -9 -3 -9 9 -1 20 4 23 9 7 11 7 11 -20 0z"/>
<path d="M1878 2213 c6 -2 18 -2 25 0 6 3 1 5 -13 5 -14 0 -19 -2 -12 -5z"/>
<path d="M4318 2213 c7 -3 16 -2 19 1 4 3 -2 6 -13 5 -11 0 -14 -3 -6 -6z"/>
<path d="M6738 2213 c7 -3 16 -2 19 1 4 3 -2 6 -13 5 -11 0 -14 -3 -6 -6z"/>
<path d="M9425 2170 c3 -5 8 -10 11 -10 2 0 4 5 4 10 0 6 -5 10 -11 10 -5 0
-7 -4 -4 -10z"/>
<path d="M6440 2160 c-18 -12 -2 -12 25 0 13 6 15 9 5 9 -8 0 -22 -4 -30 -9z"/>
<path d="M9253 2163 c9 -2 25 -2 35 0 9 3 1 5 -18 5 -19 0 -27 -2 -17 -5z"/>
<path d="M9198 2153 c7 -3 16 -2 19 1 4 3 -2 6 -13 5 -11 0 -14 -3 -6 -6z"/>
<path d="M6360 2140 c-23 -7 -23 -8 -3 -9 12 -1 25 4 28 9 3 6 5 10 3 9 -2 -1
-14 -5 -28 -9z"/>
<path d="M1488 2133 c6 -2 18 -2 25 0 6 3 1 5 -13 5 -14 0 -19 -2 -12 -5z"/>
<path d="M3039 2123 c-13 -16 -12 -17 3 -5 9 8 22 11 28 7 5 -3 10 -1 10 4 0
17 -26 13 -41 -6z"/>
<path d="M3918 2133 c6 -2 18 -2 25 0 6 3 1 5 -13 5 -14 0 -19 -2 -12 -5z"/>
<path d="M10980 2130 c-12 -8 -10 -10 8 -10 13 0 20 4 17 10 -7 12 -6 12 -25
0z"/>
<path d="M6100 2110 c-21 -7 -21 -8 -5 -9 11 0 27 4 35 9 18 11 5 11 -30 0z"/>
<path d="M9010 2110 c-35 -7 -35 -7 -5 -9 17 0 37 4 45 9 17 11 11 11 -40 0z"/>
<path d="M11600 2110 c-21 -7 -21 -8 -5 -9 11 0 27 4 35 9 18 11 5 11 -30 0z"/>
<path d="M3668 2103 c7 -3 16 -2 19 1 4 3 -2 6 -13 5 -11 0 -14 -3 -6 -6z"/>
<path d="M3443 2083 c9 -2 25 -2 35 0 9 3 1 5 -18 5 -19 0 -27 -2 -17 -5z"/>
<path d="M5873 2083 c9 -2 25 -2 35 0 9 3 1 5 -18 5 -19 0 -27 -2 -17 -5z"/>
<path d="M8793 2083 c9 -2 23 -2 30 0 6 3 -1 5 -18 5 -16 0 -22 -2 -12 -5z"/>
<path d="M11373 2083 c9 -2 25 -2 35 0 9 3 1 5 -18 5 -19 0 -27 -2 -17 -5z"/>
<path d="M8148 2063 c12 -2 32 -2 45 0 12 2 2 4 -23 4 -25 0 -35 -2 -22 -4z"/>
<path d="M10608 2063 c7 -3 16 -2 19 1 4 3 -2 6 -13 5 -11 0 -14 -3 -6 -6z"/>
<path d="M3158 2053 c6 -2 18 -2 25 0 6 3 1 5 -13 5 -14 0 -19 -2 -12 -5z"/>
<path d="M5588 2053 c7 -3 16 -2 19 1 4 3 -2 6 -13 5 -11 0 -14 -3 -6 -6z"/>
<path d="M7968 2053 c12 -2 30 -2 40 0 9 3 -1 5 -23 4 -22 0 -30 -2 -17 -4z"/>
<path d="M8508 2053 c7 -3 16 -2 19 1 4 3 -2 6 -13 5 -11 0 -14 -3 -6 -6z"/>
<path d="M10528 2053 c12 -2 30 -2 40 0 9 3 -1 5 -23 4 -22 0 -30 -2 -17 -4z"/>
<path d="M11078 2053 c6 -2 18 -2 25 0 6 3 1 5 -13 5 -14 0 -19 -2 -12 -5z"/>
<path d="M7608 2033 c7 -3 16 -2 19 1 4 3 -2 6 -13 5 -11 0 -14 -3 -6 -6z"/>
<path d="M7728 2033 c7 -3 16 -2 19 1 4 3 -2 6 -13 5 -11 0 -14 -3 -6 -6z"/>
<path d="M10287 2033 c-4 -3 -6 -36 -5 -72 l2 -66 3 60 c3 41 9 64 20 73 14
10 15 12 2 12 -9 0 -19 -3 -22 -7z"/>
<path d="M10105 1700 c-16 -7 -17 -9 -3 -9 9 -1 20 4 23 9 7 11 7 11 -20 0z"/>
<path d="M9708 1673 c12 -2 30 -2 40 0 9 3 -1 5 -23 4 -22 0 -30 -2 -17 -4z"/>
<path d="M10008 1673 c7 -3 16 -2 19 1 4 3 -2 6 -13 5 -11 0 -14 -3 -6 -6z"/>
<path d="M2711 1156 c-20 -22 -22 -29 -14 -68 6 -25 6 -77 1 -123 -10 -94 -1
-328 14 -367 18 -47 83 -45 108 3 6 11 10 46 9 77 l-3 56 39 8 c110 23 187 65
219 119 37 63 23 175 -28 224 -55 53 -172 95 -267 95 -46 0 -59 -4 -78 -24z
m242 -154 c11 -10 17 -29 17 -59 0 -40 -2 -44 -30 -50 -17 -3 -33 -10 -36 -14
-7 -12 -55 -11 -73 0 -11 7 -13 25 -7 82 3 40 11 76 17 80 13 8 86 -18 112
-39z"/>
<path d="M3834 1170 c-29 -4 -57 -11 -63 -14 -18 -11 -13 -61 9 -86 18 -21 20
-37 20 -194 l-1 -171 -29 -29 c-29 -28 -41 -76 -20 -76 6 0 10 -7 10 -15 0
-16 0 -16 109 -17 83 0 119 14 128 50 7 31 -5 53 -40 70 l-27 13 0 175 c0 162
1 175 20 191 20 18 26 58 12 80 -7 12 -57 34 -70 32 -4 -1 -30 -5 -58 -9z"/>
<path d="M7845 1171 c-74 -18 -98 -55 -75 -111 8 -20 13 -102 14 -247 1 -120
5 -224 9 -230 5 -7 23 -13 41 -13 49 0 69 29 74 106 4 58 6 64 27 64 30 0 50
-25 70 -87 29 -89 75 -106 114 -42 16 26 16 35 6 77 -7 26 -21 61 -31 79 l-19
32 31 33 c54 59 68 123 41 200 -24 69 -72 102 -193 132 -67 17 -65 17 -109 7z
m170 -164 c32 -45 11 -104 -44 -127 -48 -20 -58 -9 -63 67 -3 37 -1 73 3 78
14 18 88 5 104 -18z"/>
<path d="M8884 1171 c-81 -10 -107 -48 -64 -91 18 -18 20 -35 21 -194 l2 -175
-31 -36 c-37 -41 -38 -52 -12 -83 16 -20 29 -23 102 -25 67 -2 88 2 111 17 45
31 32 89 -25 109 -15 5 -17 24 -13 182 2 144 6 179 19 194 19 21 21 74 4 88
-20 16 -58 20 -114 14z"/>
<path d="M4651 1151 c-30 -23 -23 -57 16 -85 20 -15 44 -20 102 -20 70 -1 76
-3 79 -23 2 -13 -9 -34 -28 -55 -35 -37 -160 -243 -160 -263 0 -7 -5 -15 -11
-17 -18 -6 -22 -81 -6 -102 12 -16 24 -19 68 -16 30 2 100 3 156 1 122 -2 153
10 153 64 0 49 -21 60 -114 60 -76 0 -81 1 -84 22 -2 15 20 58 65 123 110 163
122 183 137 232 13 45 13 50 -6 73 -19 25 -20 25 -181 25 -142 0 -165 -3 -186
-19z"/>
<path d="M5692 1154 c-29 -20 -28 -36 8 -75 28 -31 32 -33 107 -33 73 -1 78
-2 81 -24 2 -15 -10 -38 -37 -69 -23 -25 -41 -50 -41 -55 0 -5 -15 -33 -34
-61 -59 -94 -94 -162 -100 -197 -8 -46 12 -71 56 -71 18 1 92 1 164 1 112 0
134 3 147 18 26 30 29 57 8 83 -18 22 -26 24 -101 22 -121 -4 -120 9 19 207
82 115 101 156 101 209 0 30 -5 43 -19 51 -11 6 -88 10 -178 10 -127 0 -163
-3 -181 -16z"/>
<path d="M6933 1160 c-20 -8 -73 -79 -73 -97 0 -4 -11 -30 -24 -58 -13 -27
-31 -72 -39 -100 -20 -65 -37 -113 -53 -150 -19 -47 -36 -136 -32 -175 2 -28
8 -36 27 -38 55 -8 108 45 125 125 10 43 27 55 78 51 l43 -3 3 -52 c3 -44 7
-55 32 -73 35 -25 82 -26 104 -1 15 16 16 27 7 77 -6 33 -15 93 -21 134 -18
132 -45 246 -61 265 -5 5 -9 17 -9 26 0 21 -53 79 -72 78 -7 0 -23 -4 -35 -9z
m31 -256 c3 -25 3 -50 0 -55 -9 -14 -44 -10 -50 6 -6 14 26 94 37 95 4 0 9
-21 13 -46z"/>
<path d="M9894 1151 c-16 -10 -36 -33 -45 -52 -9 -19 -28 -58 -43 -87 -14 -30
-26 -64 -26 -77 0 -13 -4 -27 -10 -30 -5 -3 -10 -16 -10 -29 0 -12 -7 -31 -15
-42 -8 -10 -15 -27 -15 -36 0 -9 -6 -29 -14 -45 -20 -39 -38 -131 -34 -173 2
-28 8 -36 27 -38 55 -8 108 45 125 125 10 43 27 55 78 51 l43 -3 3 -50 c4 -57
20 -79 69 -96 32 -10 37 -9 60 13 23 24 24 28 14 84 -6 32 -15 93 -21 134 -19
134 -45 249 -61 265 -5 5 -9 16 -9 25 0 23 -42 70 -66 74 -12 3 -34 -4 -50
-13z m39 -257 c2 -44 0 -49 -21 -52 -30 -5 -39 23 -18 58 9 16 16 36 16 46 0
13 3 15 11 7 6 -6 11 -32 12 -59z"/>
</g>
</svg>
